:SAMPLES-PER-SECOND 30
:FULLY-SPECIFIED
:DEGREES
168
root  -27.5008 33.6188 21.0107 28.2175 -60.0356 -29.5704
RightUpLeg  -38.5395 -10.0456 11.2014
RightLeg  64.5612 -2.48774 -6.34101
RightFoot  -20.4687 0.0609393 2.51583
RightToes  9.54606e-009 0 -3.6325e-017
Spine  41.7679 1.06542 -6.09049
Spine1  10.6425 3.90778 -20.1408
HEad  -48.7617 -37.7163 16.2436
LeftShoulder1  1.24946 -1.41182 -18.867
LeftArm  -19.9807 -4.54545 -18.4742
LeftForeArm  3.47287 -4.6445 -0.40724
LeftHand  0.20929 10.0586 6.32031
RightShoulder  0.141946 -2.9838 22.4665
RightArm  36.7961 35.6306 76.4284
RightForeArm  14.7583 41.0951 8.82337
RightHand  -0.400195 4.68416 -4.85591
LeftUpLeg  -51.8411 11.6389 19.0836
LeftLeg  56.399 -4.0347 -6.00679
LeftFoot  -4.34137 0.0118008 0.230202
LeftToes  -8.26734e-010 9.74065e-011 1.64617e-011
169
root  -27.0949 33.6475 20.8791 27.8182 -60.2495 -29.5473
RightUpLeg  -37.4498 -12.0129 11.2584
RightLeg  66.1229 -3.23227 -8.6393
RightFoot  -21.4794 -0.0310495 1.2838
RightToes  9.54606e-009 0 -3.6325e-017
Spine  42.1012 1.44478 -4.03799
Spine1  12.9689 5.10152 -18.7522
HEad  -46.7569 -37.9994 15.4269
LeftShoulder1  1.16942 -1.10407 -18.8231
LeftArm  -18.2142 2.7195 -23.7118
LeftForeArm  1.76913 1.54964 0.531417
LeftHand  0.0906817 9.89573 3.6225
RightShoulder  0.0062046 -3.45569 24.1294
RightArm  39.0784 43.528 81.7164
RightForeArm  13.0467 35.2194 7.1536
RightHand  -0.266811 4.37379 -3.4892
LeftUpLeg  -51.5839 10.9552 19.014
LeftLeg  55.3474 -3.7399 -5.30662
LeftFoot  -3.13566 0.00688774 0.164433
LeftToes  -8.26734e-010 9.74065e-011 1.64617e-011
170
root  -26.678 33.63 20.6322 26.4663 -61.3658 -28.4601
RightUpLeg  -35.8537 -12.3093 10.147
RightLeg  67.5589 -3.1169 -8.98191
RightFoot  -21.6528 -0.144655 0.0918339
RightToes  9.54606e-009 0 -3.6325e-017
Spine  41.9615 2.26497 -2.56674
Spine1  14.9192 6.63356 -17.6118
HEad  -45.3041 -38.423 15.7308
LeftShoulder1  1.14372 -0.947715 -19.1648
LeftArm  -16.2117 9.39924 -27.7853
LeftForeArm  -0.253778 4.51902 0.243641
LeftHand  0.0123022 12.5088 1.29197
RightShoulder  -0.10185 -3.79895 25.5689
RightArm  42.2244 49.2356 87
RightForeArm  9.23403 30.5615 6.16467
RightHand  -0.346363 3.58849 -4.70897
LeftUpLeg  -51.1443 11.7391 17.9395
LeftLeg  54.2697 -3.96845 -5.42876
LeftFoot  -1.90105 0.00223889 0.1125
LeftToes  -8.26734e-010 9.74065e-011 1.64617e-011
171
root  -26.246 33.495 20.3722 24.2908 -61.7964 -26.8207
RightUpLeg  -32.749 -12.6691 8.78195
RightLeg  65.8329 -2.73259 -7.391
RightFoot  -24.198 -0.0201606 0.868717
RightToes  9.54606e-009 0 -3.6325e-017
Spine  41.5319 2.56468 -0.974106
Spine1  16.6527 7.29221 -15.9069
HEad  -42.6228 -37.8726 15.2081
LeftShoulder1  1.12002 -0.642381 -20.5843
LeftArm  -15.3932 16.7975 -29.619
LeftForeArm  6.82707 2.41367 -0.0917273
LeftHand  -0.223828 13.5641 -2.03729
RightShoulder  -0.159558 -3.9914 24.726
RightArm  47.3473 52.6233 93.3114
RightForeArm  2.43961 27.2121 5.7322
RightHand  -0.488632 5.14324 -5.6791
LeftUpLeg  -51.0049 11.5293 17.0472
LeftLeg  53.6516 -4.02889 -5.38996
LeftFoot  -0.872399 0.0290395 -0.256027
LeftToes  -8.26734e-010 9.74065e-011 1.64617e-011
172
root  -25.7898 33.2591 20.0655 22.4782 -61.7046 -25.6155
RightUpLeg  -30.037 -12.7005 7.83215
RightLeg  62.4691 -2.35068 -5.44388
RightFoot  -31.428 0.392912 3.51254
RightToes  9.54606e-009 0 -3.6325e-017
Spine  41.2048 1.84097 1.22998
Spine1  16.8505 7.14303 -15.4911
HEad  -38.6704 -36.602 14.1069
LeftShoulder1  1.09282 -0.305361 -22.3429
LeftArm  -10.8929 23.6546 -28.2052
LeftForeArm  16.5619 0.587463 -2.66454
LeftHand  -0.304533 13.2622 -3.31887
RightShoulder  -0.171113 -4.0497 23.5345
RightArm  54.9679 53.8126 99.7137
RightForeArm  -2.37057 26.035 5.71277
RightHand  -0.58407 5.51803 -6.52111
LeftUpLeg  -51.3211 10.1947 16.963
LeftLeg  53.4449 -3.62254 -4.76593
LeftFoot  0.276425 0.0938148 -0.942923
LeftToes  -8.26734e-010 9.74065e-011 1.64617e-011
173
root  -25.2594 33.1756 19.6471 21.0008 -65.8965 -26.0426
RightUpLeg  -30.3581 -9.74515 6.85986
RightLeg  64.0702 -2.15173 -5.43424
RightFoot  -28.7748 0.0448397 1.5628
RightToes  9.54606e-009 0 -3.6325e-017
Spine  42.0647 2.5516 1.16275
Spine1  16.2673 8.86878 -17.7573
HEad  -34.6746 -34.4892 12.115
LeftShoulder1  1.06549 -0.0738746 -23.4964
LeftArm  -8.01874 30.4491 -27.3873
LeftForeArm  23.069 -1.04112 -3.96337
LeftHand  -0.155575 9.39773 -2.84684
RightShoulder  -0.242667 -4.27867 23.9743
RightArm  63.9712 53.6105 105.219
RightForeArm  -1.70284 27.3013 5.97435
RightHand  -0.467406 5.39836 -5.34574
LeftUpLeg  -48.3663 12.0225 17.0117
LeftLeg  52.6024 -2.9707 -3.7101
LeftFoot  1.23347 0.20803 -1.95314
LeftToes  -8.26734e-010 9.74065e-011 1.64617e-011
174
root  -24.6142 33.2011 19.3273 19.9997 -67.8208 -26.4897
RightUpLeg  -30.2633 -9.62176 6.47233
RightLeg  63.8065 -1.73125 -4.4506
RightFoot  -27.0287 -0.188742 -0.0318893
RightToes  9.54606e-009 0 -3.6325e-017
Spine  41.4696 2.3007 2.08245
Spine1  17.2378 8.86152 -17.0105
HEad  -35.0667 -31.3634 11.4981
LeftShoulder1  1.02867 0.233208 -25.2685
LeftArm  -9.63933 35.1942 -29.596
LeftForeArm  21.6811 -1.32982 -2.89463
LeftHand  -0.225968 10.6196 -3.50425
RightShoulder  -0.299849 -4.47254 23.7991
RightArm  71.5165 52.7216 109.691
RightForeArm  2.67373 30.1974 6.4453
RightHand  -0.329231 6.25715 -3.61003
LeftUpLeg  -46.4113 11.7352 17.4921
LeftLeg  50.9396 -2.31241 -2.60327
LeftFoot  3.03665 0.402502 -3.31317
LeftToes  -8.26734e-010 9.74065e-011 1.64617e-011
